<svg width="21" height="20" viewBox="0 0 21 20" fill="none" xmlns="http://www.w3.org/2000/svg">
<path d="M7.16636 18.3333H13.833C17.183 18.3333 17.783 16.9917 17.958 15.3583L18.583 8.69167C18.808 6.65833 18.2247 5 14.6664 5H6.33303C2.77469 5 2.19136 6.65833 2.41636 8.69167L3.04136 15.3583C3.21636 16.9917 3.81636 18.3333 7.16636 18.3333Z" stroke="#7D8FB3" stroke-width="1.2" stroke-miterlimit="10" stroke-linecap="round" stroke-linejoin="round"/>
<path d="M7.16699 4.99935V4.33268C7.16699 2.85768 7.16699 1.66602 9.83366 1.66602H11.167C13.8337 1.66602 13.8337 2.85768 13.8337 4.33268V4.99935" stroke="#7D8FB3" stroke-width="1.2" stroke-miterlimit="10" stroke-linecap="round" stroke-linejoin="round"/>
<path d="M12.1663 10.8333V11.6667C12.1663 11.675 12.1663 11.675 12.1663 11.6833C12.1663 12.5917 12.158 13.3333 10.4997 13.3333C8.84967 13.3333 8.83301 12.6 8.83301 11.6917V10.8333C8.83301 10 8.83301 10 9.66634 10H11.333C12.1663 10 12.1663 10 12.1663 10.8333Z" stroke="#7D8FB3" stroke-width="1.2" stroke-miterlimit="10" stroke-linecap="round" stroke-linejoin="round"/>
<path d="M18.542 9.16602C16.617 10.566 14.417 11.3993 12.167 11.6827" stroke="#7D8FB3" stroke-width="1.2" stroke-miterlimit="10" stroke-linecap="round" stroke-linejoin="round"/>
<path d="M2.68359 9.3916C4.55859 10.6749 6.67526 11.4499 8.83359 11.6916" stroke="#7D8FB3" stroke-width="1.2" stroke-miterlimit="10" stroke-linecap="round" stroke-linejoin="round"/>
</svg>
