<svg width="16" height="16" viewBox="0 0 16 16" fill="none" xmlns="http://www.w3.org/2000/svg">
<path d="M3.83734 13.3286L3.83658 13.3287C3.58362 13.3723 3.41595 13.3024 3.31975 13.2111C3.22314 13.1195 3.14339 12.954 3.17173 12.6973C3.17175 12.6971 3.17178 12.6969 3.1718 12.6967L3.41767 10.5437C3.42959 10.4593 3.46933 10.328 3.53551 10.1861C3.60289 10.0416 3.6776 9.92918 3.73224 9.87086C3.73237 9.87072 3.73249 9.87059 3.73262 9.87045L9.20463 4.07852C9.20473 4.07842 9.20482 4.07832 9.20492 4.07821C9.20494 4.07819 9.20496 4.07817 9.20498 4.07815C9.65049 3.60763 10.065 3.33711 10.4733 3.28491C10.8554 3.23605 11.3583 3.36457 12.0251 3.99184C12.6958 4.62623 12.8538 5.12309 12.8269 5.50742C12.7982 5.91807 12.5509 6.34681 12.1051 6.81771L12.1047 6.81807L6.63141 12.6114L6.63136 12.6114L6.62538 12.6179C6.57327 12.6751 6.46917 12.7549 6.33078 12.8288C6.19426 12.9018 6.06558 12.9472 5.98206 12.9623C5.9816 12.9623 5.98114 12.9624 5.98068 12.9625L3.83734 13.3286Z" stroke="#757DE8" stroke-miterlimit="10" stroke-linecap="round" stroke-linejoin="round"/>
<mask id="path-2-inside-1_329_1210" fill="white">
<path d="M7.92578 4.7002C8.21245 6.5402 9.70578 7.94686 11.5591 8.13353L7.92578 4.7002Z"/>
</mask>
<path d="M8.91386 4.54626C8.82884 4.00055 8.31754 3.6271 7.77184 3.71212C7.22614 3.79713 6.85268 4.30843 6.9377 4.85414L8.91386 4.54626ZM11.4589 9.12849C12.0084 9.18384 12.4987 8.78325 12.5541 8.23374C12.6094 7.68424 12.2088 7.19391 11.6593 7.13856L11.4589 9.12849ZM6.9377 4.85414C7.29487 7.14664 9.1555 8.8965 11.4589 9.12849L11.6593 7.13856C10.2561 6.99723 9.13003 5.93375 8.91386 4.54626L6.9377 4.85414Z" fill="#757DE8" mask="url(#path-2-inside-1_329_1210)"/>
</svg>
