<svg width="16" height="16" viewBox="0 0 16 16" fill="none" xmlns="http://www.w3.org/2000/svg">
<path d="M12.027 9.03267C11.747 9.30601 11.587 9.69934 11.627 10.1193C11.687 10.8393 12.347 11.366 13.067 11.366H14.3337V12.1593C14.3337 13.5393 13.207 14.666 11.827 14.666H4.17366C2.79366 14.666 1.66699 13.5393 1.66699 12.1593V7.67269C1.66699 6.29269 2.79366 5.16602 4.17366 5.16602H11.827C13.207 5.16602 14.3337 6.29269 14.3337 7.67269V8.63269H12.987C12.6137 8.63269 12.2737 8.77934 12.027 9.03267Z" stroke="#6B7A99" stroke-linecap="round" stroke-linejoin="round"/>
<path d="M1.66699 8.27288V5.22625C1.66699 4.43291 2.15366 3.72622 2.89366 3.44622L8.18699 1.44622C9.01366 1.13289 9.90033 1.74624 9.90033 2.6329V5.16623" stroke="#6B7A99" stroke-linecap="round" stroke-linejoin="round"/>
<path d="M15.0395 9.31376V10.6871C15.0395 11.0538 14.7462 11.3538 14.3729 11.3671H13.0662C12.3462 11.3671 11.6862 10.8404 11.6262 10.1204C11.5862 9.70044 11.7462 9.30711 12.0262 9.03377C12.2729 8.78044 12.6129 8.63379 12.9862 8.63379H14.3729C14.7462 8.64712 15.0395 8.94709 15.0395 9.31376Z" stroke="#6B7A99" stroke-linecap="round" stroke-linejoin="round"/>
<path d="M4.66699 8H9.33366" stroke="#6B7A99" stroke-linecap="round" stroke-linejoin="round"/>
</svg>
