<svg width="26" height="24" viewBox="0 0 26 24" fill="none" xmlns="http://www.w3.org/2000/svg">
<g opacity="0.6">
<path d="M6.3169 14.5034L5.48104 17.6231L2.42746 17.688C1.50362 15.9675 1.01279 14.0478 0.997442 12.0949C0.982091 10.1421 1.44267 8.21486 2.33936 6.47998L5.0579 6.97847L6.2485 9.68079C5.71277 11.2478 5.73653 12.952 6.31574 14.5034H6.3169Z" fill="#FBBB00"/>
<path d="M24.7927 9.75708C25.2001 11.8972 25.017 14.1079 24.2632 16.1519C23.5093 18.196 22.2131 19.9961 20.5137 21.3593L17.0892 21.1843L16.6046 18.1585C18.0188 17.3295 19.1054 16.0399 19.6825 14.5056H13.2646V9.75244H24.7938L24.7927 9.75708Z" fill="#518EF8"/>
<path d="M20.5127 21.3583C19.1392 22.4603 17.5401 23.2467 15.8288 23.6618C14.1174 24.0769 12.3357 24.1104 10.61 23.76C8.88421 23.4097 7.25664 22.684 5.84263 21.6345C4.42861 20.5849 3.26277 19.2372 2.42773 17.6868L6.31717 14.5034C6.68243 15.4769 7.25592 16.3588 7.99753 17.0875C8.73914 17.8162 9.63098 18.3741 10.6107 18.7222C11.5904 19.0704 12.6343 19.2003 13.6694 19.103C14.7046 19.0056 15.706 18.6834 16.6036 18.1587L20.5127 21.3583Z" fill="#28B446"/>
<path d="M20.6612 2.75968L16.7729 5.94311C15.8621 5.3765 14.8353 5.02247 13.7688 4.90732C12.7023 4.79217 11.6236 4.91887 10.6129 5.27799C9.6021 5.63712 8.68528 6.21943 7.93054 6.98166C7.1758 7.74388 6.60257 8.66641 6.25344 9.68067L2.34082 6.47986C3.1658 4.88838 4.33673 3.50186 5.76764 2.42209C7.19856 1.34233 8.85313 0.59673 10.6099 0.240043C12.3666 -0.116645 14.181 -0.0753684 15.9197 0.360842C17.6584 0.797053 19.2773 1.61712 20.6577 2.76084L20.6612 2.75968Z" fill="#F14336"/>
</g>
</svg>
