<svg width="20" height="20" viewBox="0 0 20 20" fill="none" xmlns="http://www.w3.org/2000/svg">
<path d="M10.8406 2.43323L15.7573 4.61656C17.174 5.24156 17.174 6.27489 15.7573 6.89989L10.8406 9.08323C10.2823 9.33323 9.36563 9.33323 8.80729 9.08323L3.89063 6.89989C2.47396 6.27489 2.47396 5.24156 3.89063 4.61656L8.80729 2.43323C9.36563 2.18323 10.2823 2.18323 10.8406 2.43323Z" stroke="#6B7A99" stroke-width="1.2" stroke-linecap="round" stroke-linejoin="round"/>
<path d="M2.5 9.1665C2.5 9.8665 3.025 10.6748 3.66667 10.9582L9.325 13.4748C9.75833 13.6665 10.25 13.6665 10.675 13.4748L16.3333 10.9582C16.975 10.6748 17.5 9.8665 17.5 9.1665" stroke="#6B7A99" stroke-width="1.2" stroke-linecap="round" stroke-linejoin="round"/>
<path d="M2.5 13.3335C2.5 14.1085 2.95833 14.8085 3.66667 15.1252L9.325 17.6418C9.75833 17.8335 10.25 17.8335 10.675 17.6418L16.3333 15.1252C17.0417 14.8085 17.5 14.1085 17.5 13.3335" stroke="#6B7A99" stroke-width="1.2" stroke-linecap="round" stroke-linejoin="round"/>
</svg>
