<svg width="20" height="20" viewBox="0 0 20 20" fill="none" xmlns="http://www.w3.org/2000/svg">
<path d="M16.4922 12.4416C14.7755 14.1499 12.3172 14.6749 10.1589 13.9999L6.23386 17.9166C5.95053 18.2083 5.3922 18.3833 4.9922 18.3249L3.17553 18.0749C2.57553 17.9916 2.0172 17.4249 1.92553 16.8249L1.67553 15.0083C1.6172 14.6083 1.80886 14.0499 2.08386 13.7666L6.00053 9.84994C5.33386 7.68327 5.85053 5.22494 7.56719 3.5166C10.0255 1.05827 14.0172 1.05827 16.4839 3.5166C18.9505 5.97494 18.9505 9.98327 16.4922 12.4416Z" stroke="#7D8FB3" stroke-width="1.5" stroke-miterlimit="10" stroke-linecap="round" stroke-linejoin="round"/>
<path d="M5.74121 14.5752L7.65788 16.4919" stroke="#7D8FB3" stroke-width="1.5" stroke-miterlimit="10" stroke-linecap="round" stroke-linejoin="round"/>
<path d="M12.082 9.1665C12.7724 9.1665 13.332 8.60686 13.332 7.9165C13.332 7.22615 12.7724 6.6665 12.082 6.6665C11.3917 6.6665 10.832 7.22615 10.832 7.9165C10.832 8.60686 11.3917 9.1665 12.082 9.1665Z" stroke="#7D8FB3" stroke-width="1.5" stroke-linecap="round" stroke-linejoin="round"/>
</svg>
