<svg width="21" height="20" viewBox="0 0 21 20" fill="none" xmlns="http://www.w3.org/2000/svg">
<path d="M18.8333 7.10033V3.31699C18.8333 2.14199 18.3 1.66699 16.975 1.66699H13.6083C12.2833 1.66699 11.75 2.14199 11.75 3.31699V7.09199C11.75 8.27533 12.2833 8.74199 13.6083 8.74199H16.975C18.3 8.75033 18.8333 8.27533 18.8333 7.10033Z" stroke="#757DE8" stroke-width="1.5" stroke-linecap="round" stroke-linejoin="round"/>
<path d="M18.8333 16.475V13.1083C18.8333 11.7833 18.3 11.25 16.975 11.25H13.6083C12.2833 11.25 11.75 11.7833 11.75 13.1083V16.475C11.75 17.8 12.2833 18.3333 13.6083 18.3333H16.975C18.3 18.3333 18.8333 17.8 18.8333 16.475Z" stroke="#757DE8" stroke-width="1.5" stroke-linecap="round" stroke-linejoin="round"/>
<path d="M9.24837 7.10033V3.31699C9.24837 2.14199 8.71504 1.66699 7.39004 1.66699H4.02337C2.69837 1.66699 2.16504 2.14199 2.16504 3.31699V7.09199C2.16504 8.27533 2.69837 8.74199 4.02337 8.74199H7.39004C8.71504 8.75033 9.24837 8.27533 9.24837 7.10033Z" stroke="#757DE8" stroke-width="1.5" stroke-linecap="round" stroke-linejoin="round"/>
<path d="M9.24837 16.475V13.1083C9.24837 11.7833 8.71504 11.25 7.39004 11.25H4.02337C2.69837 11.25 2.16504 11.7833 2.16504 13.1083V16.475C2.16504 17.8 2.69837 18.3333 4.02337 18.3333H7.39004C8.71504 18.3333 9.24837 17.8 9.24837 16.475Z" stroke="#757DE8" stroke-width="1.5" stroke-linecap="round" stroke-linejoin="round"/>
</svg>
