<svg width="16" height="16" viewBox="0 0 16 16" fill="none" xmlns="http://www.w3.org/2000/svg">
<path d="M12.8585 5.27901V8.71236C12.8585 10.7657 11.6852 11.6457 9.92517 11.6457H4.06517C3.76517 11.6457 3.4785 11.619 3.21183 11.559C3.04517 11.5324 2.88517 11.4857 2.7385 11.4324C1.73851 11.059 1.13184 10.1924 1.13184 8.71236V5.27901C1.13184 3.22568 2.30517 2.3457 4.06517 2.3457H9.92517C11.4185 2.3457 12.4918 2.97903 12.7785 4.4257C12.8252 4.69237 12.8585 4.96568 12.8585 5.27901Z" stroke="#6B7A99" stroke-miterlimit="10" stroke-linecap="round" stroke-linejoin="round"/>
<path d="M14.8557 7.28007V10.7134C14.8557 12.7668 13.6823 13.6467 11.9223 13.6467H6.06232C5.56898 13.6467 5.12232 13.5801 4.73566 13.4334C3.94232 13.1401 3.40232 12.5334 3.20898 11.5601C3.47565 11.6201 3.76232 11.6467 4.06232 11.6467H9.92232C11.6823 11.6467 12.8557 10.7668 12.8557 8.71342V5.28007C12.8557 4.96674 12.829 4.68676 12.7757 4.42676C14.0423 4.69342 14.8557 5.58674 14.8557 7.28007Z" stroke="#6B7A99" stroke-miterlimit="10" stroke-linecap="round" stroke-linejoin="round"/>
<path d="M6.99341 8.76025C7.96543 8.76025 8.75342 7.97227 8.75342 7.00024C8.75342 6.02822 7.96543 5.24023 6.99341 5.24023C6.02139 5.24023 5.2334 6.02822 5.2334 7.00024C5.2334 7.97227 6.02139 8.76025 6.99341 8.76025Z" stroke="#6B7A99" stroke-miterlimit="10" stroke-linecap="round" stroke-linejoin="round"/>
<path d="M3.17969 5.53223V8.46558" stroke="#6B7A99" stroke-miterlimit="10" stroke-linecap="round" stroke-linejoin="round"/>
<path d="M10.8047 5.53223V8.46558" stroke="#6B7A99" stroke-miterlimit="10" stroke-linecap="round" stroke-linejoin="round"/>
</svg>
