<svg width="24" height="24" viewBox="0 0 24 24" fill="none" xmlns="http://www.w3.org/2000/svg">
<path d="M19.2882 7.91852V13.0685C19.2882 16.1485 17.5282 17.4685 14.8882 17.4685H6.09824C5.64824 17.4685 5.21824 17.4286 4.81824 17.3386C4.56824 17.2986 4.32825 17.2286 4.10825 17.1486C2.60825 16.5886 1.69824 15.2885 1.69824 13.0685V7.91852C1.69824 4.83852 3.45824 3.51855 6.09824 3.51855H14.8882C17.1282 3.51855 18.7382 4.46855 19.1682 6.63855C19.2382 7.03855 19.2882 7.44852 19.2882 7.91852Z" stroke="#6B7A99" stroke-width="1.5" stroke-miterlimit="10" stroke-linecap="round" stroke-linejoin="round"/>
<path d="M22.2845 10.9196V16.0696C22.2845 19.1496 20.5245 20.4696 17.8845 20.4696H9.09445C8.35445 20.4696 7.68446 20.3697 7.10446 20.1497C5.91446 19.7097 5.10445 18.7997 4.81445 17.3397C5.21445 17.4297 5.64445 17.4696 6.09445 17.4696H14.8845C17.5245 17.4696 19.2845 16.1496 19.2845 13.0696V7.91962C19.2845 7.44962 19.2445 7.02965 19.1645 6.63965C21.0645 7.03965 22.2845 8.37962 22.2845 10.9196Z" stroke="#6B7A99" stroke-width="1.5" stroke-miterlimit="10" stroke-linecap="round" stroke-linejoin="round"/>
<path d="M10.4916 13.1404C11.9496 13.1404 13.1316 11.9584 13.1316 10.5004C13.1316 9.04233 11.9496 7.86035 10.4916 7.86035C9.03355 7.86035 7.85156 9.04233 7.85156 10.5004C7.85156 11.9584 9.03355 13.1404 10.4916 13.1404Z" stroke="#6B7A99" stroke-width="1.5" stroke-miterlimit="10" stroke-linecap="round" stroke-linejoin="round"/>
<path d="M4.76953 8.29785V12.6979" stroke="#6B7A99" stroke-width="1.5" stroke-miterlimit="10" stroke-linecap="round" stroke-linejoin="round"/>
<path d="M16.207 8.29883V12.6989" stroke="#6B7A99" stroke-width="1.5" stroke-miterlimit="10" stroke-linecap="round" stroke-linejoin="round"/>
</svg>
