<svg width="24" height="24" viewBox="0 0 24 24" fill="none" xmlns="http://www.w3.org/2000/svg">
<path d="M0 12C0 8.27247 0 6.4087 0.608964 4.93853C1.42092 2.97831 2.97831 1.42092 4.93853 0.608964C6.4087 0 8.27247 0 12 0C15.7275 0 17.5913 0 19.0615 0.608964C21.0217 1.42092 22.5791 2.97831 23.391 4.93853C24 6.4087 24 8.27247 24 12C24 15.7275 24 17.5913 23.391 19.0615C22.5791 21.0217 21.0217 22.5791 19.0615 23.391C17.5913 24 15.7275 24 12 24C8.27247 24 6.4087 24 4.93853 23.391C2.97831 22.5791 1.42092 21.0217 0.608964 19.0615C0 17.5913 0 15.7275 0 12Z" fill="#EDEEFF"/>
<path d="M9.33289 18.6667H14.6662C17.3462 18.6667 17.8262 17.5933 17.9662 16.2867L18.4662 10.9533C18.6462 9.32667 18.1796 8 15.3329 8H8.66623C5.81956 8 5.35289 9.32667 5.53289 10.9533L6.03289 16.2867C6.17289 17.5933 6.65289 18.6667 9.33289 18.6667Z" stroke="#2E333D" stroke-miterlimit="10" stroke-linecap="round" stroke-linejoin="round"/>
<path d="M9.33496 7.99967V7.46634C9.33496 6.28634 9.33496 5.33301 11.4683 5.33301H12.535C14.6683 5.33301 14.6683 6.28634 14.6683 7.46634V7.99967" stroke="#2E333D" stroke-miterlimit="10" stroke-linecap="round" stroke-linejoin="round"/>
<path d="M13.3317 12.6667V13.3333C13.3317 13.34 13.3317 13.34 13.3317 13.3467C13.3317 14.0733 13.325 14.6667 11.9984 14.6667C10.6784 14.6667 10.665 14.08 10.665 13.3533V12.6667C10.665 12 10.665 12 11.3317 12H12.665C13.3317 12 13.3317 12 13.3317 12.6667Z" stroke="#2E333D" stroke-miterlimit="10" stroke-linecap="round" stroke-linejoin="round"/>
<path d="M18.435 11.333C16.895 12.453 15.135 13.1197 13.335 13.3463" stroke="#2E333D" stroke-miterlimit="10" stroke-linecap="round" stroke-linejoin="round"/>
<path d="M5.74609 11.5137C7.24609 12.5403 8.93943 13.1603 10.6661 13.3537" stroke="#2E333D" stroke-miterlimit="10" stroke-linecap="round" stroke-linejoin="round"/>
</svg>
