<svg width="38" height="38" viewBox="0 0 38 38" fill="none" xmlns="http://www.w3.org/2000/svg">
<rect width="38" height="38" rx="19" fill="#757DE8"/>
<path d="M19.0001 15.5732L18.1084 17.1232C17.9084 17.4649 18.0751 17.7482 18.4667 17.7482H19.5251C19.9251 17.7482 20.0834 18.0316 19.8834 18.3732L19.0001 19.9232" stroke="white" stroke-width="1.2" stroke-linecap="round" stroke-linejoin="round"/>
<path d="M15.9184 24.0341V23.0675C14.0018 21.9091 12.4268 19.6508 12.4268 17.2508C12.4268 13.1258 16.2184 9.89246 20.5018 10.8258C22.3851 11.2425 24.0351 12.4925 24.8934 14.2175C26.6351 17.7175 24.8018 21.4341 22.1101 23.0591V24.0258C22.1101 24.2675 22.2018 24.8258 21.3101 24.8258H16.7184C15.8018 24.8341 15.9184 24.4758 15.9184 24.0341Z" stroke="white" stroke-width="1.2" stroke-linecap="round" stroke-linejoin="round"/>
<path d="M16.082 27.333C17.9904 26.7913 20.007 26.7913 21.9154 27.333" stroke="white" stroke-width="1.2" stroke-linecap="round" stroke-linejoin="round"/>
</svg>
