<svg width="13" height="13" viewBox="0 0 13 13" fill="none" xmlns="http://www.w3.org/2000/svg">
<path d="M7.16437 1.83138L8.08263 3.6679C8.20784 3.92355 8.54176 4.16877 8.8235 4.21572L10.4878 4.49225C11.5522 4.66964 11.8026 5.44181 11.0357 6.20355L9.74176 7.49746C9.52263 7.71659 9.40263 8.1392 9.47045 8.44181L9.84089 10.0435C10.1331 11.3114 9.46002 11.8018 8.33828 11.1392L6.77828 10.2157C6.49654 10.0488 6.03219 10.0488 5.74524 10.2157L4.18524 11.1392C3.06871 11.8018 2.39045 11.3062 2.68263 10.0435L3.05306 8.44181C3.12089 8.1392 3.00089 7.71659 2.78176 7.49746L1.48784 6.20355C0.726104 5.44181 0.971322 4.66964 2.03567 4.49225L3.70002 4.21572C3.97654 4.16877 4.31045 3.92355 4.43567 3.6679L5.35393 1.83138C5.8548 0.834854 6.66871 0.834854 7.16437 1.83138Z" fill="#757DE8" stroke="#757DE8" stroke-width="0.782609" stroke-linecap="round" stroke-linejoin="round"/>
</svg>
