<svg width="32" height="32" viewBox="0 0 32 32" fill="none" xmlns="http://www.w3.org/2000/svg">
<g clip-path="url(#clip0_101_10396)">
<rect width="32" height="32" rx="16" fill="white"/>
<path opacity="0.2" d="M16 32C24.8366 32 32 24.8366 32 16C32 7.16344 24.8366 0 16 0C7.16344 0 0 7.16344 0 16C0 24.8366 7.16344 32 16 32Z" fill="#757DE8"/>
<path d="M8.38086 23.911C8.40143 21.9039 9.21318 19.986 10.6397 18.574C12.0663 17.162 13.9924 16.3699 15.9997 16.3699C18.0069 16.3699 19.933 17.162 21.3596 18.574C22.7861 19.986 23.5979 21.9039 23.6185 23.911H8.38086Z" fill="#757DE8"/>
<path d="M20.4449 10.5766C20.4449 8.12184 18.4549 6.13184 16.0001 6.13184C13.5453 6.13184 11.5553 8.12184 11.5553 10.5766C11.5553 13.0314 13.5453 15.0214 16.0001 15.0214C18.4549 15.0214 20.4449 13.0314 20.4449 10.5766Z" fill="#757DE8"/>
</g>
<defs>
<clipPath id="clip0_101_10396">
<rect width="32" height="32" rx="16" fill="white"/>
</clipPath>
</defs>
</svg>
