<svg width="38" height="38" viewBox="0 0 38 38" fill="none" xmlns="http://www.w3.org/2000/svg">
<rect width="38" height="38" rx="19" fill="#757DE8"/>
<path d="M15.9824 18.9991L17.9908 21.0158L22.0158 16.9824" stroke="white" stroke-width="1.2" stroke-linecap="round" stroke-linejoin="round"/>
<path d="M17.9574 11.0406C18.5324 10.549 19.4741 10.549 20.0574 11.0406L21.3741 12.174C21.6241 12.3906 22.0908 12.5656 22.4241 12.5656H23.8408C24.7241 12.5656 25.4491 13.2906 25.4491 14.174V15.5906C25.4491 15.9156 25.6241 16.3906 25.8408 16.6406L26.9741 17.9573C27.4658 18.5323 27.4658 19.474 26.9741 20.0573L25.8408 21.374C25.6241 21.624 25.4491 22.0906 25.4491 22.424V23.8406C25.4491 24.724 24.7241 25.449 23.8408 25.449H22.4241C22.0991 25.449 21.6241 25.624 21.3741 25.8406L20.0574 26.974C19.4824 27.4656 18.5408 27.4656 17.9574 26.974L16.6408 25.8406C16.3908 25.624 15.9241 25.449 15.5908 25.449H14.1491C13.2658 25.449 12.5408 24.724 12.5408 23.8406V22.4156C12.5408 22.0906 12.3658 21.624 12.1574 21.374L11.0324 20.049C10.5491 19.474 10.5491 18.5406 11.0324 17.9656L12.1574 16.6406C12.3658 16.3906 12.5408 15.924 12.5408 15.599V14.1656C12.5408 13.2823 13.2658 12.5573 14.1491 12.5573H15.5908C15.9158 12.5573 16.3908 12.3823 16.6408 12.1656L17.9574 11.0406Z" stroke="white" stroke-width="1.2" stroke-linecap="round" stroke-linejoin="round"/>
</svg>
