<svg width="14" height="14" viewBox="0 0 14 14" fill="none" xmlns="http://www.w3.org/2000/svg">
<g clip-path="url(#clip0_178_10318)">
<path d="M12.8855 7.0112C12.8855 6.804 13.0703 6.5072 13.2495 6.2216C13.5295 5.7792 13.8151 5.3144 13.6695 4.8496C13.5239 4.4016 13.0311 4.2 12.5607 4.004C12.2359 3.8696 11.9055 3.7352 11.7711 3.5504C11.6367 3.3656 11.6143 3.0072 11.5863 2.66C11.5471 2.1504 11.5135 1.6184 11.1327 1.3384C10.7351 1.0528 10.2087 1.1816 9.69912 1.3048C9.37432 1.3832 9.03272 1.4728 8.83112 1.4056C8.62952 1.344 8.39992 1.0752 8.18152 0.812C7.84552 0.4144 7.49832 0 7.01672 0C6.54072 0 6.19352 0.4088 5.85752 0.8008C5.63352 1.064 5.40392 1.3328 5.19112 1.4C5.00072 1.4616 4.66472 1.3832 4.34552 1.2992C3.85272 1.176 3.29832 1.036 2.89512 1.3272C2.49192 1.6184 2.45272 2.1896 2.41352 2.6936C2.39112 3.024 2.36312 3.3712 2.24552 3.5336C2.11672 3.7072 1.78632 3.8416 1.46712 3.9704C0.985518 4.1664 0.492718 4.368 0.341518 4.8216C0.190318 5.2808 0.475918 5.74 0.750318 6.1824C0.929518 6.4736 1.11432 6.7704 1.11432 6.9832C1.11432 7.1904 0.929518 7.4872 0.750318 7.7728C0.470318 8.2152 0.184718 8.68 0.330318 9.1448C0.475918 9.5928 0.968718 9.7944 1.43912 9.9904C1.76392 10.1248 2.09432 10.2592 2.22872 10.444C2.36312 10.6288 2.38552 10.9872 2.41352 11.3344C2.45272 11.844 2.48632 12.376 2.86712 12.656C3.26472 12.9416 3.79112 12.8128 4.30072 12.6896C4.62552 12.6112 4.96712 12.5272 5.16872 12.5888C5.37032 12.656 5.59992 12.9248 5.81832 13.188C6.15432 13.5856 6.50152 14 6.98312 14C7.45912 14 7.80632 13.5912 8.14232 13.1992C8.36632 12.936 8.59592 12.6672 8.80312 12.6C8.99352 12.5384 9.32952 12.6224 9.65432 12.7008C10.1415 12.824 10.6959 12.964 11.1047 12.6728C11.5079 12.3816 11.5471 11.8104 11.5863 11.3064C11.6087 10.976 11.6367 10.6288 11.7543 10.4664C11.8831 10.2928 12.2135 10.1584 12.5327 10.0296C13.0143 9.8336 13.5127 9.632 13.6583 9.1784C13.8095 8.7192 13.5239 8.26 13.2495 7.8176C13.0703 7.5264 12.8855 7.224 12.8855 7.0112ZM6.52392 8.9096C6.41192 9.0216 6.27192 9.072 6.12632 9.072C5.98072 9.072 5.84072 9.016 5.72872 8.9096L4.04872 7.2296L4.83832 6.44L6.12072 7.7224L9.08312 4.76L9.87272 5.5496L6.52392 8.9096Z" fill="#039855"/>
</g>
<defs>
<clipPath id="clip0_178_10318">
<rect width="14" height="14" fill="white"/>
</clipPath>
</defs>
</svg>
