<svg width="20" height="20" viewBox="0 0 20 20" fill="none" xmlns="http://www.w3.org/2000/svg">
<path d="M6.9834 10.0006L8.99173 12.0172L13.0167 7.98389" stroke="#6B7A99" stroke-width="1.2" stroke-linecap="round" stroke-linejoin="round"/>
<path d="M8.9584 2.04111C9.5334 1.54945 10.4751 1.54945 11.0584 2.04111L12.3751 3.17445C12.6251 3.39111 13.0917 3.56611 13.4251 3.56611H14.8417C15.7251 3.56611 16.4501 4.29111 16.4501 5.17445V6.59111C16.4501 6.91611 16.6251 7.39111 16.8417 7.64111L17.9751 8.95778C18.4667 9.53278 18.4667 10.4744 17.9751 11.0578L16.8417 12.3744C16.6251 12.6244 16.4501 13.0911 16.4501 13.4244V14.8411C16.4501 15.7244 15.7251 16.4494 14.8417 16.4494H13.4251C13.1001 16.4494 12.6251 16.6244 12.3751 16.8411L11.0584 17.9744C10.4834 18.4661 9.54173 18.4661 8.9584 17.9744L7.64173 16.8411C7.39173 16.6244 6.92506 16.4494 6.59173 16.4494H5.15006C4.26673 16.4494 3.54173 15.7244 3.54173 14.8411V13.4161C3.54173 13.0911 3.36673 12.6244 3.1584 12.3744L2.0334 11.0494C1.55007 10.4744 1.55007 9.54111 2.0334 8.96611L3.1584 7.64111C3.36673 7.39111 3.54173 6.92445 3.54173 6.59945V5.16611C3.54173 4.28278 4.26673 3.55778 5.15006 3.55778H6.59173C6.91673 3.55778 7.39173 3.38278 7.64173 3.16611L8.9584 2.04111Z" stroke="#6B7A99" stroke-width="1.2" stroke-linecap="round" stroke-linejoin="round"/>
</svg>
