<svg width="16" height="16" viewBox="0 0 16 16" fill="none" xmlns="http://www.w3.org/2000/svg">
<path d="M5.58789 8.0003L7.19456 9.61363L10.4146 6.38696" stroke="white" stroke-linecap="round" stroke-linejoin="round"/>
<path d="M7.16789 1.63301C7.62789 1.23968 8.38122 1.23968 8.84789 1.63301L9.90122 2.53968C10.1012 2.71301 10.4746 2.85301 10.7412 2.85301H11.8746C12.5812 2.85301 13.1612 3.43301 13.1612 4.13968V5.27301C13.1612 5.53301 13.3012 5.91301 13.4746 6.11301L14.3812 7.16635C14.7746 7.62635 14.7746 8.37968 14.3812 8.84635L13.4746 9.89968C13.3012 10.0997 13.1612 10.473 13.1612 10.7397V11.873C13.1612 12.5797 12.5812 13.1597 11.8746 13.1597H10.7412C10.4812 13.1597 10.1012 13.2997 9.90122 13.473L8.84789 14.3797C8.38789 14.773 7.63456 14.773 7.16789 14.3797L6.11456 13.473C5.91456 13.2997 5.54122 13.1597 5.27456 13.1597H4.12122C3.41456 13.1597 2.83456 12.5797 2.83456 11.873V10.733C2.83456 10.473 2.69456 10.0997 2.52789 9.89968L1.62789 8.83968C1.24122 8.37968 1.24122 7.63301 1.62789 7.17301L2.52789 6.11301C2.69456 5.91301 2.83456 5.53968 2.83456 5.27968V4.13301C2.83456 3.42635 3.41456 2.84635 4.12122 2.84635H5.27456C5.53456 2.84635 5.91456 2.70635 6.11456 2.53301L7.16789 1.63301Z" stroke="white" stroke-linecap="round" stroke-linejoin="round"/>
</svg>
